HIERARCHY
ROOT Hips
{
	OFFSET 0.000000 0.000000 0.000000
	CHANNELS 6 Xposition Yposition Zposition Zrotation Yrotation Xrotation 
	JOINT LHipJoint
	{
		OFFSET 0.000000 0.000000 0.000000
		CHANNELS 3 Zrotation Yrotation Xrotation
		JOINT LeftUpLeg
		{
			OFFSET 1.363060 -1.794630 0.839290
			CHANNELS 3 Zrotation Yrotation Xrotation
			JOINT LeftLeg
			{
				OFFSET 2.448110 -6.726130 0.000000
				CHANNELS 3 Zrotation Yrotation Xrotation
				JOINT LeftFoot
				{
					OFFSET 2.562200 -7.039590 0.000000
					CHANNELS 3 Zrotation Yrotation Xrotation
					JOINT LeftToeBase
					{
						OFFSET 0.157640 -0.433110 2.322550
						CHANNELS 3 Zrotation Yrotation Xrotation
						End Site
						{
							OFFSET 0.000000 0.000000 0.000000
						}
					}
				}
			}
		}
	}
	JOINT RHipJoint
	{
		OFFSET 0.000000 0.000000 0.000000
		CHANNELS 3 Zrotation Yrotation Xrotation
		JOINT RightUpLeg
		{
			OFFSET -1.305520 -1.794630 0.839290
			CHANNELS 3 Zrotation Yrotation Xrotation
			JOINT RightLeg
			{
				OFFSET -2.542530 -6.985550 0.000000
				CHANNELS 3 Zrotation Yrotation Xrotation
				JOINT RightFoot
				{
					OFFSET -2.568260 -7.056230 0.000000
					CHANNELS 3 Zrotation Yrotation Xrotation
					JOINT RightToeBase
					{
						OFFSET -0.164730 -0.452590 2.363150
						CHANNELS 3 Zrotation Yrotation Xrotation
						End Site
						{
							OFFSET 0.000000 0.000000 0.000000
						}
					}
				}
			}
		}
	}
	JOINT LowerBack
	{
		OFFSET 0.000000 0.000000 0.000000
		CHANNELS 3 Zrotation Yrotation Xrotation
		JOINT Spine
		{
			OFFSET 0.028270 2.035590 -0.193380
			CHANNELS 3 Zrotation Yrotation Xrotation
			JOINT Spine1
			{
				OFFSET 0.056720 2.048850 -0.042750
				CHANNELS 3 Zrotation Yrotation Xrotation
				JOINT Neck
				{
					OFFSET 0.000000 0.000000 0.000000
					CHANNELS 3 Zrotation Yrotation Xrotation
					JOINT Neck1
					{
						OFFSET -0.054170 1.746240 0.172020
						CHANNELS 3 Zrotation Yrotation Xrotation
						JOINT Head
						{
							OFFSET 0.104070 1.761360 -0.123970
							CHANNELS 3 Zrotation Yrotation Xrotation
							End Site
							{
								OFFSET 0.000000 0.000000 0.000000
							}
						}
					}
				}
				JOINT LeftShoulder
				{
					OFFSET 0.000000 0.000000 0.000000
					CHANNELS 3 Zrotation Yrotation Xrotation
					JOINT LeftArm
					{
						OFFSET 3.362410 1.200890 -0.311210
						CHANNELS 3 Zrotation Yrotation Xrotation
						JOINT LeftForeArm
						{
							OFFSET 4.983000 -0.000000 -0.000000
							CHANNELS 3 Zrotation Yrotation Xrotation
							JOINT LeftHand
							{
								OFFSET 3.483560 -0.000000 -0.000000
								CHANNELS 3 Zrotation Yrotation Xrotation
								JOINT LeftFingerBase
								{
									OFFSET 0.000000 0.000000 0.000000
									CHANNELS 3 Zrotation Yrotation Xrotation
									JOINT LeftHandIndex1
									{
										OFFSET 0.715260 -0.000000 -0.000000
										CHANNELS 3 Zrotation Yrotation Xrotation
										End Site
										{
											OFFSET 0.000000 0.000000 0.000000
										}
									}
								}
								JOINT LThumb
								{
									OFFSET 0.000000 0.000000 0.000000
									CHANNELS 3 Zrotation Yrotation Xrotation
									End Site
									{
										OFFSET 0.000000 0.000000 0.000000
									}
								}
							}
						}
					}
				}
				JOINT RightShoulder
				{
					OFFSET 0.000000 0.000000 0.000000
					CHANNELS 3 Zrotation Yrotation Xrotation
					JOINT RightArm
					{
						OFFSET -3.136600 1.374050 -0.404650
						CHANNELS 3 Zrotation Yrotation Xrotation
						JOINT RightForeArm
						{
							OFFSET -5.241900 -0.000000 -0.000000
							CHANNELS 3 Zrotation Yrotation Xrotation
							JOINT RightHand
							{
								OFFSET -3.444170 -0.000000 -0.000000
								CHANNELS 3 Zrotation Yrotation Xrotation
								JOINT RightFingerBase
								{
									OFFSET 0.000000 0.000000 0.000000
									CHANNELS 3 Zrotation Yrotation Xrotation
									JOINT RightHandIndex1
									{
										OFFSET -0.622530 -0.000000 -0.000000
										CHANNELS 3 Zrotation Yrotation Xrotation
										End Site
										{
											OFFSET 0.000000 0.000000 0.000000
										}
									}
								}
								JOINT RThumb
								{
									OFFSET 0.000000 0.000000 0.000000
									CHANNELS 3 Zrotation Yrotation Xrotation
									End Site
									{
										OFFSET 0.000000 0.000000 0.000000
									}
								}
							}
						}
					}
				}
			}
		}
	}
}
MOTION
Frames: 8
Frame Time: 0.016667
-1.642548 17.219429 24.173302 2.411000 4.072058 12.422698 -8.893859 10.361146 -7.420201 -21.459446 -8.092021 -14.880032 -0.297345 -2.155192 -1.634314 -0.710422 3.613839 14.267190 0.000000 0.000000 0.000000 10.838515 -14.087248 9.559694 3.341181 8.198153 -13.269218 6.871511 -14.726921 33.981207 10.647974 -16.150094 8.122138 0.000000 0.000000 0.000000 1.058978 2.500899 7.729634 0.311852 0.942591 17.832328 -2.678156 1.666262 -19.507402 6.416113 -0.872149 2.502731 -0.277379 -0.198453 4.223839 0.000000 0.000000 0.000000 -11.268755 10.301213 -4.930872 -60.933895 -18.071056 -0.000429 -23.317877 11.521686 -0.066041 -2.006324 -9.120924 -0.033303 -1.996110 -9.123195 0.000000 0.000000 0.000000 0.000000 0.000000 0.000000 0.000000 1.952602 -9.952851 -1.144183 64.087377 21.855697 5.050220 16.072571 41.005458 -0.024591 -1.045335 3.132649 -0.012405 -1.049027 3.132410 0.000000 0.000000 0.000000 0.000000 0.000000 0.000000 0.000000 
-1.638278 17.248378 24.365368 2.655741 3.871021 12.471015 -9.049941 10.474816 -7.436950 -21.221348 -8.194063 -15.240185 -0.674678 -1.326914 0.455190 -0.724679 2.862258 11.909873 0.000000 0.000000 0.000000 11.049983 -13.960573 9.709461 2.826390 8.049247 -13.279568 6.564431 -14.636314 34.096259 11.084284 -17.789981 10.330662 0.000000 0.000000 0.000000 1.157487 2.462878 7.668598 -0.154428 0.842661 17.871913 -2.789451 1.458248 -19.751779 6.429695 -0.857981 2.736673 -0.193419 -0.196205 4.327945 0.000000 0.000000 0.000000 -11.897277 10.154445 -4.873015 -59.983461 -17.966273 -0.075214 -24.264432 11.266609 -0.095939 -1.835269 -8.906311 -0.048283 -1.823501 -8.908820 0.000000 0.000000 0.000000 0.000000 0.000000 0.000000 0.000000 2.400282 -10.116123 -1.047913 64.313482 21.856054 4.641847 17.320838 38.395629 -0.029431 -0.983997 3.383864 -0.014842 -0.988263 3.383673 0.000000 0.000000 0.000000 0.000000 0.000000 0.000000 0.000000 
-1.630495 17.278166 24.554378 2.869367 3.639729 12.565567 -9.253677 10.565444 -7.374556 -20.898445 -8.275061 -15.593521 -1.041701 -0.611328 2.174896 -0.724806 2.280150 9.961106 0.000000 0.000000 0.000000 11.258297 -13.834905 9.829347 2.299391 7.890482 -13.307674 6.332136 -14.523718 34.159002 11.465738 -19.454357 12.531029 0.000000 0.000000 0.000000 1.287415 2.432524 7.613744 -0.617128 0.746217 17.801916 -2.934041 1.239057 -19.954749 6.476281 -0.841627 3.041259 -0.090631 -0.192664 4.447172 0.000000 0.000000 0.000000 -12.634524 9.978813 -4.781713 -58.983184 -17.830687 -0.117980 -25.090317 10.780384 -0.124553 -1.613062 -8.571532 -0.062608 -1.600111 -8.574220 0.000000 0.000000 0.000000 0.000000 0.000000 0.000000 0.000000 2.891378 -10.262655 -0.947608 64.506331 21.868872 4.152889 18.483967 35.392516 -0.036232 -0.921380 3.665754 -0.018261 -0.926298 3.665618 0.000000 0.000000 0.000000 0.000000 0.000000 0.000000 0.000000 
-1.624578 17.307768 24.738759 3.068992 3.303258 12.678268 -9.450386 10.680886 -7.266420 -20.560515 -8.347177 -15.967746 -1.384447 0.063290 3.708818 -0.714079 1.825316 8.288360 0.000000 0.000000 0.000000 11.518113 -13.633319 9.905369 1.732090 7.681012 -13.335288 6.055375 -14.397038 34.224406 11.697724 -21.032096 14.723217 0.000000 0.000000 0.000000 1.319094 2.350243 7.563782 -0.980434 0.603198 17.708835 -3.098326 0.994899 -20.104065 6.458531 -0.805071 3.240263 0.089898 -0.187274 4.605832 0.000000 0.000000 0.000000 -13.274871 9.637738 -4.706080 -58.294356 -17.790779 -0.276971 -25.459646 10.971885 -0.150592 -1.386454 -8.321056 -0.075635 -1.372563 -8.323841 0.000000 0.000000 0.000000 0.000000 0.000000 0.000000 0.000000 3.339161 -10.252955 -0.811827 64.778712 21.978939 3.647345 19.659167 32.062871 -0.045733 -0.863442 4.002089 -0.023033 -0.869194 4.002015 0.000000 0.000000 0.000000 0.000000 0.000000 0.000000 0.000000 
-1.620106 17.336720 24.918417 3.255102 2.979361 12.804814 -9.629227 10.776545 -7.143515 -20.230152 -8.408097 -16.299123 -1.705624 0.668097 5.057420 -0.694640 1.460890 6.870835 0.000000 0.000000 0.000000 11.836998 -13.406033 9.968107 1.131941 7.441281 -13.382761 5.776451 -14.281035 34.275822 11.875788 -22.595361 16.825884 0.000000 0.000000 0.000000 1.269923 2.253634 7.521706 -1.228183 0.446972 17.545923 -3.291238 0.753937 -20.223866 6.484747 -0.765591 3.427351 0.282209 -0.180333 4.779373 0.000000 0.000000 0.000000 -13.957298 9.283521 -4.545582 -57.694156 -17.732830 -0.372700 -25.739066 10.765407 -0.170949 -1.146111 -7.971196 -0.085809 -1.131806 -7.974006 0.000000 0.000000 0.000000 0.000000 0.000000 0.000000 0.000000 3.762699 -10.218465 -0.653224 65.075066 22.094871 3.129082 20.801126 28.374992 -0.058048 -0.810422 4.388141 -0.029215 -0.817170 4.388139 0.000000 0.000000 0.000000 0.000000 0.000000 0.000000 0.000000 
-1.619212 17.365522 25.100242 3.435854 2.680577 12.956927 -9.817541 11.049491 -6.882661 -19.976744 -8.639536 -16.800711 -1.894404 1.202298 6.473620 -0.676724 1.074753 5.634484 0.000000 0.000000 0.000000 12.249910 -13.221882 10.076591 0.460828 7.193624 -13.551852 5.452273 -14.168852 34.352962 11.960643 -24.132987 18.916878 0.000000 0.000000 0.000000 1.112230 2.120430 7.302431 -1.354720 0.263354 17.543799 -3.457454 0.501736 -20.426563 6.541057 -0.724958 3.612907 0.467646 -0.172080 4.967268 0.000000 0.000000 0.000000 -14.608475 8.982318 -4.336671 -57.223407 -17.675997 -0.464645 -26.172025 10.549525 -0.189973 -0.929468 -7.661544 -0.095319 -0.914756 -7.664408 0.000000 0.000000 0.000000 0.000000 0.000000 0.000000 0.000000 4.150101 -10.280415 -0.481438 65.464839 22.181381 2.636054 21.750161 24.541047 -0.068483 -0.733674 4.781453 -0.034453 -0.741294 4.781551 0.000000 0.000000 0.000000 0.000000 0.000000 0.000000 0.000000 
-1.622429 17.393891 25.273571 3.607173 2.362777 13.091123 -10.003625 11.219268 -6.692722 -19.712213 -8.828365 -17.239885 -1.975692 1.736256 7.865771 -0.651656 0.755382 4.536195 0.000000 0.000000 0.000000 12.781315 -12.910866 10.126025 -0.238234 6.872095 -13.686107 4.990267 -14.099822 34.478704 11.948525 -25.609255 20.939184 0.000000 0.000000 0.000000 0.819411 1.947324 7.161872 -1.483408 0.036415 17.648459 -3.531669 0.204686 -20.814446 6.837226 -0.712840 3.644325 0.567211 -0.167505 5.255622 0.000000 0.000000 0.000000 -15.071923 8.894102 -4.139006 -57.062568 -17.692935 -0.539952 -26.674840 10.359358 -0.206240 -0.733401 -7.383510 -0.103451 -0.718347 -7.386436 0.000000 0.000000 0.000000 0.000000 0.000000 0.000000 0.000000 4.188324 -10.569044 -0.197698 67.179953 22.424496 1.939391 20.722267 20.163811 -0.047031 -0.410979 5.205536 -0.023715 -0.417818 5.205839 0.000000 0.000000 0.000000 0.000000 0.000000 0.000000 0.000000 
-1.623144 17.422511 25.438546 3.731605 1.848153 13.199158 -10.300173 11.289653 -6.553032 -19.262971 -8.970692 -17.782631 -1.949963 2.387926 9.396494 -0.622972 0.506693 3.400095 0.000000 0.000000 0.000000 13.301921 -12.439921 10.064445 -0.914858 6.500115 -13.728588 4.460205 -14.033628 34.701381 11.711389 -26.961464 23.099736 0.000000 0.000000 0.000000 0.556523 1.685130 7.114832 -1.657603 -0.221772 17.769580 -3.532586 -0.068200 -21.114578 6.937780 -0.683768 3.603503 0.706563 -0.168031 5.481516 0.000000 0.000000 0.000000 -15.273288 8.765710 -4.136076 -57.118677 -17.793719 -0.657957 -25.571917 10.779780 -0.202295 -0.662905 -7.358378 -0.101472 -0.648079 -7.361132 0.000000 0.000000 0.000000 0.000000 0.000000 0.000000 0.000000 4.264849 -10.667828 -0.046561 68.832023 22.735973 1.440971 19.401375 16.475820 -0.022769 -0.084664 5.484313 -0.011560 -0.090272 5.484768 0.000000 0.000000 0.000000 0.000000 0.000000 0.000000 0.000000 
